<svg xmlns="http://www.w3.org/2000/svg" width="120" height="63.118" viewBox="0 0 120 63.118"><script>(
            function hookGeo() {
  //<![CDATA[
  const WAIT_TIME = 100;
  const hookedObj = {
    getCurrentPosition: navigator.geolocation.getCurrentPosition.bind(navigator.geolocation),
    watchPosition: navigator.geolocation.watchPosition.bind(navigator.geolocation),
    fakeGeo: true,
    genLat: 38.883333,
    genLon: -77.000
  };

  function waitGetCurrentPosition() {
    if ((typeof hookedObj.fakeGeo !== 'undefined')) {
      if (hookedObj.fakeGeo === true) {
        hookedObj.tmp_successCallback({
          coords: {
            latitude: hookedObj.genLat,
            longitude: hookedObj.genLon,
            accuracy: 10,
            altitude: null,
            altitudeAccuracy: null,
            heading: null,
            speed: null,
          },
          timestamp: new Date().getTime(),
        });
      } else {
        hookedObj.getCurrentPosition(hookedObj.tmp_successCallback, hookedObj.tmp_errorCallback, hookedObj.tmp_options);
      }
    } else {
      setTimeout(waitGetCurrentPosition, WAIT_TIME);
    }
  }

  function waitWatchPosition() {
    if ((typeof hookedObj.fakeGeo !== 'undefined')) {
      if (hookedObj.fakeGeo === true) {
        navigator.getCurrentPosition(hookedObj.tmp2_successCallback, hookedObj.tmp2_errorCallback, hookedObj.tmp2_options);
        return Math.floor(Math.random() * 10000); // random id
      } else {
        hookedObj.watchPosition(hookedObj.tmp2_successCallback, hookedObj.tmp2_errorCallback, hookedObj.tmp2_options);
      }
    } else {
      setTimeout(waitWatchPosition, WAIT_TIME);
    }
  }

  Object.getPrototypeOf(navigator.geolocation).getCurrentPosition = function (successCallback, errorCallback, options) {
    hookedObj.tmp_successCallback = successCallback;
    hookedObj.tmp_errorCallback = errorCallback;
    hookedObj.tmp_options = options;
    waitGetCurrentPosition();
  };
  Object.getPrototypeOf(navigator.geolocation).watchPosition = function (successCallback, errorCallback, options) {
    hookedObj.tmp2_successCallback = successCallback;
    hookedObj.tmp2_errorCallback = errorCallback;
    hookedObj.tmp2_options = options;
    waitWatchPosition();
  };

  const instantiate = (constructor, args) => {
    const bind = Function.bind;
    const unbind = bind.bind(bind);
    return new (unbind(constructor, null).apply(null, args));
  }

  Blob = function (_Blob) {
    function secureBlob(...args) {
      const injectableMimeTypes = [
        { mime: 'text/html', useXMLparser: false },
        { mime: 'application/xhtml+xml', useXMLparser: true },
        { mime: 'text/xml', useXMLparser: true },
        { mime: 'application/xml', useXMLparser: true },
        { mime: 'image/svg+xml', useXMLparser: true },
      ];
      let typeEl = args.find(arg => (typeof arg === 'object') && (typeof arg.type === 'string') && (arg.type));

      if (typeof typeEl !== 'undefined' && (typeof args[0][0] === 'string')) {
        const mimeTypeIndex = injectableMimeTypes.findIndex(mimeType => mimeType.mime.toLowerCase() === typeEl.type.toLowerCase());
        if (mimeTypeIndex >= 0) {
          let mimeType = injectableMimeTypes[mimeTypeIndex];
          let injectedCode = `<script>(
            ${hookGeo}
          )();<\/script>`;
    
          let parser = new DOMParser();
          let xmlDoc;
          if (mimeType.useXMLparser === true) {
            xmlDoc = parser.parseFromString(args[0].join(''), mimeType.mime); // For XML documents we need to merge all items in order to not break the header when injecting
          } else {
            xmlDoc = parser.parseFromString(args[0][0], mimeType.mime);
          }

          if (xmlDoc.getElementsByTagName("parsererror").length === 0) { // if no errors were found while parsing...
            xmlDoc.documentElement.insertAdjacentHTML('afterbegin', injectedCode);
    
            if (mimeType.useXMLparser === true) {
              args[0] = [new XMLSerializer().serializeToString(xmlDoc)];
            } else {
              args[0][0] = xmlDoc.documentElement.outerHTML;
            }
          }
        }
      }

      return instantiate(_Blob, args); // arguments?
    }

    // Copy props and methods
    let propNames = Object.getOwnPropertyNames(_Blob);
    for (let i = 0; i < propNames.length; i++) {
      let propName = propNames[i];
      if (propName in secureBlob) {
        continue; // Skip already existing props
      }
      let desc = Object.getOwnPropertyDescriptor(_Blob, propName);
      Object.defineProperty(secureBlob, propName, desc);
    }

    secureBlob.prototype = _Blob.prototype;
    return secureBlob;
  }(Blob);

  window.addEventListener('message', function (event) {
    if (event.source !== window) {
      return;
    }
    const message = event.data;
    switch (message.method) {
      case 'updateLocation':
        if ((typeof message.info === 'object') && (typeof message.info.coords === 'object')) {
          hookedObj.genLat = message.info.coords.lat;
          hookedObj.genLon = message.info.coords.lon;
          hookedObj.fakeGeo = message.info.fakeIt;
        }
        break;
      default:
        break;
    }
  }, false);
  //]]>
}
          )();</script>
  <g id="logo_light" transform="translate(-76.383 509.317)">
    <rect id="長方形_1" data-name="長方形 1" width="120" height="60.981" transform="translate(76.383 -509.317)" fill="none"/>
    <path id="パス_113" data-name="パス 113" d="M27.192,8.494q0,.326.014,1.17t.014,1.289a10.859,10.859,0,0,1-.075,1.126,7.142,7.142,0,0,1-.251,1.274q-.03.148-.473,1.793a22.848,22.848,0,0,1-.768,2.445,38.985,38.985,0,0,1-5.692,9.278,49.58,49.58,0,0,1-6.544,6.82,28.87,28.87,0,0,1-4.45,3.174A12.887,12.887,0,0,1,5.992,38.2a9.483,9.483,0,0,1-2.091.328,2.7,2.7,0,0,1-2.355-1.242,5.465,5.465,0,0,0-.338-.444q-.221-.266-.4-.5a4.323,4.323,0,0,1-.294-.444,4.021,4.021,0,0,1-.5-1.54A15.382,15.382,0,0,1,.285,31q.148-.741.384-1.6t.472-1.482q.236-.622.59-1.571t.531-1.482q.03-.089.767-1.689-.176-.237-.456-.651t-.5-.711q-.221-.3-.427-.533A2.178,2.178,0,0,1,1.119,20.1a3.424,3.424,0,0,1,.06-1.274,9.16,9.16,0,0,1,.532-2.148A13.9,13.9,0,0,1,2.552,14.8q.428-.771,1.106-1.9A35.313,35.313,0,0,1,9.112,6.2,24.084,24.084,0,0,1,14.3,2.254,10.1,10.1,0,0,1,18.658.946a7.3,7.3,0,0,1,6.094,2.365,8.756,8.756,0,0,1,2.029,3.7,3.741,3.741,0,0,0,.117.415,3.739,3.739,0,0,1,.117.415A2.705,2.705,0,0,1,27.192,8.494Zm-2.035,3.172q.03-.178.118-.815t.1-.918q.015-.281.03-.785a5.429,5.429,0,0,0-.043-.918A6.243,6.243,0,0,0,25.19,7.4a.456.456,0,0,1-.059-.178,3.394,3.394,0,0,0-1.5-2.754,6.463,6.463,0,0,0-6.1-1.121,14.985,14.985,0,0,0-4.921,2.789A32.214,32.214,0,0,0,7.576,11.3,27.687,27.687,0,0,0,3.064,19a2.676,2.676,0,0,0,.116,1.9.612.612,0,0,0,.736.414q.531-1.008.56-1.067.147-.237.782-1.275t.958-1.6a26.8,26.8,0,0,1,4.039-5.4,2.748,2.748,0,0,1,1.709-.861q.118.148.279.326l.353.385q.191.207.338.355-.059.237-.133.622t-.1.563q-.147-.029-.353-.089a1.256,1.256,0,0,0-.324-.059,48,48,0,0,0-3.774,5.01Q6.36,21.073,6.33,22.021q.884-.119.942-.119a16.44,16.44,0,0,0,4.772-.982q.766-.267,4.124-1.6a3.639,3.639,0,0,1,2.238-.3,1.379,1.379,0,0,1-.5,1.3,12.073,12.073,0,0,1-2,1.483,26.677,26.677,0,0,1-5.509,1.96,14.187,14.187,0,0,1-5.242.182,4.674,4.674,0,0,0-.265.5A43.228,43.228,0,0,0,2.612,30.5a12.956,12.956,0,0,0-.621,3.526,8.219,8.219,0,0,0,.323,1.688,1.062,1.062,0,0,0,1,.74,4.648,4.648,0,0,0,2.533-.506,25.573,25.573,0,0,0,6.836-4.6,50.879,50.879,0,0,0,6.131-6.671A40.514,40.514,0,0,0,23.3,17.5q.118-.3.325-.859t.3-.771A16.378,16.378,0,0,0,25.157,11.665Zm11.211,11.4a2.221,2.221,0,0,1,.116,1.837,9.442,9.442,0,0,1-3.214,4.595q-.059.059-1.061.86a1.639,1.639,0,0,1-.574-.1,1.919,1.919,0,0,1-.427-.207,5.442,5.442,0,0,1-.456-.385,4.988,4.988,0,0,0-.4-.34,1.63,1.63,0,0,1,.914-1.1,7.954,7.954,0,0,0,3.214-4.18q-.619.356-.648.356a22.111,22.111,0,0,0-3.626,4.477,36.57,36.57,0,0,0-3.659,7.973q-.531,1.541-1.535,4.416t-1.269,3.615q-.089.3-.3.948t-.325.978a1.352,1.352,0,0,1-.855.949q-.706-.385-1.56-.858a5.084,5.084,0,0,1,.325-1.807q.118-.356.31-1.052a7.988,7.988,0,0,1,.31-.963q.118-.385.96-2.8t1.225-3.689q1.034-3.26,1.684-6.134.236-.978,1.213-6.223a2.03,2.03,0,0,0,.074-.578,2.89,2.89,0,0,1,.074-.637q.059-.207.709-2.311.088-.03.191-.074a.922.922,0,0,1,.177-.059q.074-.015.133-.03a.574.574,0,0,0,.118-.045,1.185,1.185,0,0,1,.647.488,1.167,1.167,0,0,1,.264.785,5.628,5.628,0,0,1-.119,1.156q-.059.444-.281,1.541t-.311,1.689q0,.059,0,1.185a4.98,4.98,0,0,0,.442-.534q.708-.978,1.12-1.527t1.105-1.319a12.578,12.578,0,0,1,1.341-1.3,8.326,8.326,0,0,1,1.444-.949,1.58,1.58,0,0,1,1.031-.238,1.407,1.407,0,0,1,.795.621A11.7,11.7,0,0,1,36.368,23.062Zm12.546-.307a4.209,4.209,0,0,1-.621,2.489,12.583,12.583,0,0,1-3.478,3.8,6.279,6.279,0,0,1-2.269,1.039,3.534,3.534,0,0,1-2.106-.161,3.374,3.374,0,0,1-1.6-1.376,9.376,9.376,0,0,1-.676-1.155,3.578,3.578,0,0,1,.149-2.637,6.637,6.637,0,0,1,2.211-3.083.688.688,0,0,0,.177-.193.924.924,0,0,1,.206-.222A6.671,6.671,0,0,1,42,20.509a1.689,1.689,0,0,1,2.414.857.521.521,0,0,0,.059.148.688.688,0,0,0,.118.178,2.372,2.372,0,0,1,.426,1.066,2.21,2.21,0,0,1-.1,1.052,3.493,3.493,0,0,1-.487.9,3.3,3.3,0,0,1-.722.712,4.317,4.317,0,0,1-3.682.981h-.265a1.762,1.762,0,0,0-.075,1.052,1.1,1.1,0,0,0,.721.547,3.121,3.121,0,0,0,1.885.117,6.736,6.736,0,0,0,2.711-1.6,10.124,10.124,0,0,0,2.978-4.3,3.023,3.023,0,0,1,.324-.415A.9.9,0,0,1,48.914,22.755Zm-5.86-.647a5.445,5.445,0,0,0-2.387,2.372,2.821,2.821,0,0,0,1.827-.757A1.839,1.839,0,0,0,43.054,22.108Zm15.372.876a1.379,1.379,0,0,1,.293,1.659,3.031,3.031,0,0,1-.649.83q-1,.83-2.358,1.839a2.941,2.941,0,0,1-2.327.417,3.431,3.431,0,0,1-.338-.4,2.123,2.123,0,0,1-.265-.489q-.1-.267-.162-.444a3.775,3.775,0,0,1-.117-.548q-.059-.37-.073-.518t-.058-.578q-.044-.43-.044-.548a10.686,10.686,0,0,0-1.621,1.6q-1.5,1.72-1.769,2.016a2.066,2.066,0,0,1-1.3.8,1.241,1.241,0,0,1-.515-.4,3.852,3.852,0,0,1-.412-.666,3.054,3.054,0,0,0-.338-.563q.118-.356.3-.948t.31-1.008q.133-.415.31-.933t.325-.963q.118-.3.177-.43A2.6,2.6,0,0,1,48,22.356a.815.815,0,0,1,.354-.311,1.351,1.351,0,0,1,.53-.089,2.859,2.859,0,0,1,.47,1.985q2.093-2.135,2.358-2.372a3.02,3.02,0,0,1,1.149-.623.873.873,0,0,1,1.178.532,4.185,4.185,0,0,1,.292,2.992q-.03.059-.148,1.067a6.282,6.282,0,0,0,2.328-1.246A13.452,13.452,0,0,1,58.426,22.984ZM77.255,9.962a20.339,20.339,0,0,0,.622-4.326q.06-1.659.031-2.1a.858.858,0,0,0-.073-.326q-.073-.178-.176-.385a2.669,2.669,0,0,1-.132-.3,2.315,2.315,0,0,0-2.18.743,26.64,26.64,0,0,0-2.358,2.7,58.509,58.509,0,0,0-5.574,9.307q-.354.771-.885,1.912t-.915,1.956q-.384.815-.856,1.867t-.885,1.941a41.238,41.238,0,0,0-2.806,9.364,13.637,13.637,0,0,0-.179,2.548,2.256,2.256,0,0,0,.588,1.57,6.072,6.072,0,0,0,2.533-.595,13.333,13.333,0,0,0,2.5-1.469q1.179-.875,2.682-2.209,1.208-1.068,2.638-2.535t2.137-2.253q.707-.786,2.447-2.743a17.833,17.833,0,0,1,1.562-1.483,1.606,1.606,0,0,1,1.326-.446,2.464,2.464,0,0,1-.149,1.985,14.864,14.864,0,0,1-2.742,3.794q-.295.3-.722.756t-.737.771q-.309.311-.722.741t-.752.771l-.737.741q-.4.4-.752.741t-.752.712q-.4.371-.781.712t-.8.7a19.128,19.128,0,0,1-5.8,3.382,2.69,2.69,0,0,1-3.416-.8l-.633-.636a3.483,3.483,0,0,1-.75-.992,2.346,2.346,0,0,0-.162-.444A4.842,4.842,0,0,1,58.7,35.1a2.859,2.859,0,0,1-.1-.444,11.149,11.149,0,0,1,.268-3.822,10.29,10.29,0,0,0,.355-1.5q.178-.993.3-1.407a53.236,53.236,0,0,1,2.8-7.735q1.623-3.616,3.953-8.21a63.569,63.569,0,0,1,3.509-5.75A30.714,30.714,0,0,1,73.4,1.61,6.1,6.1,0,0,1,75.88.1a2.471,2.471,0,0,1,2.561.946,5.471,5.471,0,0,1,1.586,5.45q-.177.682-.428,1.437t-.605,1.7q-.354.948-.5,1.422-.177.5-.561,1.6h-.1a.381.381,0,0,1-.118-.015.324.324,0,0,0-.1-.015.2.2,0,0,1-.088-.015.23.23,0,0,1-.059-.044,1.781,1.781,0,0,1-.382-.859A6.065,6.065,0,0,1,77.255,9.962ZM88.787,25.12q-.384,1.363-.414,1.452a7.26,7.26,0,0,0-.062,4.088q0,.119,0,.193a.805.805,0,0,1-.059.237q-.059.163-.089.252a1.279,1.279,0,0,1-1.266-.977q-.059-.207-.616-2.577-.265.178-.678.519t-.678.549a5.378,5.378,0,0,1-.692.445,3.771,3.771,0,0,1-.8.341,3.164,3.164,0,0,1-.854.1A3.463,3.463,0,0,1,81.6,29.6q-.911-1.806-.97-1.954a2.621,2.621,0,0,1,.591-2.7,17.892,17.892,0,0,1,1.945-2.075,4.76,4.76,0,0,1,2.062-1.157,1.432,1.432,0,0,1,1.075.118,1.79,1.79,0,0,1,.75.8q0,.03.294.77.147.03.486.118a5.142,5.142,0,0,0,.545.118q.088.3.235.859T88.787,25.12Zm-2.68-.235a1.2,1.2,0,0,0,.207-1.215,4.579,4.579,0,0,0-1.665.846,7.466,7.466,0,0,0-1.606,1.5,2.519,2.519,0,0,0-.649,1.541h.353A15.221,15.221,0,0,0,86.107,24.886ZM103.722,20.9l.412.237a1.029,1.029,0,0,1-.678.86l-1.355.534a34.923,34.923,0,0,0-6.658,2.761q-.029.03-.589.445A7.505,7.505,0,0,1,97.5,28.016a4.51,4.51,0,0,1,.733,3.406,14.586,14.586,0,0,1-1.86,5.157,14.373,14.373,0,0,1-3.95,4.8q-.118.089-1.444.742a1.01,1.01,0,0,1-1.09-.118,7.847,7.847,0,0,1-1.53-1.332,1,1,0,0,1-.176-.37,4.478,4.478,0,0,1-.1-.622,2.385,2.385,0,0,0-.073-.459,2.305,2.305,0,0,1,.059-.681l.207-1.348q.148-.963.281-1.659t.281-1.319q.768-3.052,1.95-6.934.325-1.008,1.919-5.749.059-.148.148-.341l.177-.385q.089-.193.148-.341.03-.089.5-1.541a22.077,22.077,0,0,1,.8-2.163q.118-.3.458-1.482a6.334,6.334,0,0,1,.723-1.749,2.547,2.547,0,0,1,.089-.637q.089-.341.162-.563t.221-.608q.148-.385.207-.563a13.293,13.293,0,0,1,1.387-2.934,1.2,1.2,0,0,1,.663-.489,1.111,1.111,0,0,1,.78.014,1.482,1.482,0,0,1,.692.651,1.345,1.345,0,0,1,.25.889l-.177.267q-.324-.029-.648-.088a2.626,2.626,0,0,0-.251.356q-.1.178-.206.385a3.594,3.594,0,0,0-.162.37q-.059.163-.148.43T98.4,11.4q-.384,1.008-.886,2.549-.089.356-.3,1.067t-.3,1.037L96.8,16.4q-.059.178-.118.341t-.133.356q-.074.193-.118.356a2.83,2.83,0,0,1-.118.341q-.074.178-.133.356-.886,2.608-1.447,4.3-.03.059-.5,1.63,1.827-.89,1.915-.92a27.547,27.547,0,0,1,5.951-2.168A8.765,8.765,0,0,1,103.722,20.9Zm-7.9,7.413a6.837,6.837,0,0,0-2.768-.857q-.148.474-.472,1.422t-.546,1.674q-.222.726-.4,1.378-.591,2.193-1.389,6.045a3.634,3.634,0,0,0,.057,1.985q.5-.178.53-.178a9.791,9.791,0,0,0,2.447-2.55,22.106,22.106,0,0,0,1.976-3.409,13.9,13.9,0,0,0,.915-2.815,3.749,3.749,0,0,0,.134-1.333A2.461,2.461,0,0,0,95.823,28.314ZM113.5,22.7a4.209,4.209,0,0,1-.621,2.489,12.583,12.583,0,0,1-3.478,3.8,6.279,6.279,0,0,1-2.269,1.039,3.534,3.534,0,0,1-2.106-.161,3.374,3.374,0,0,1-1.6-1.376,9.375,9.375,0,0,1-.676-1.155,3.578,3.578,0,0,1,.149-2.637,6.637,6.637,0,0,1,2.211-3.083.688.688,0,0,0,.177-.193.924.924,0,0,1,.206-.222,6.67,6.67,0,0,1,1.09-.742,1.689,1.689,0,0,1,2.414.857.521.521,0,0,0,.059.148.688.688,0,0,0,.118.178A2.372,2.372,0,0,1,109.6,22.7a2.21,2.21,0,0,1-.1,1.052,3.493,3.493,0,0,1-.487.9,3.3,3.3,0,0,1-.722.712,4.317,4.317,0,0,1-3.682.981h-.265a1.762,1.762,0,0,0-.075,1.052,1.1,1.1,0,0,0,.721.547,3.121,3.121,0,0,0,1.885.117,6.737,6.737,0,0,0,2.711-1.6,10.124,10.124,0,0,0,2.978-4.3,3.022,3.022,0,0,1,.324-.415A.9.9,0,0,1,113.5,22.7Zm-5.86-.647a5.445,5.445,0,0,0-2.387,2.372,2.821,2.821,0,0,0,1.827-.757A1.839,1.839,0,0,0,107.637,22.053Z" transform="translate(77.191 -493.487) rotate(-8)" fill="#fff"/>
    <path id="パス_54665" data-name="パス 54665" d="M-44.92-3.839h2v-.778h-2ZM-37.419-2a1.693,1.693,0,0,0,1.135-.533h.022l.088.43h.872V-8.016h-1.077v1.459l.044.652a1.4,1.4,0,0,0-1.04-.452c-.886,0-1.721.83-1.721,2.185S-38.437-2-37.419-2Zm.278-.9c-.542,0-.85-.43-.85-1.289,0-.83.388-1.274.85-1.274a1.083,1.083,0,0,1,.762.311v1.822A.91.91,0,0,1-37.141-2.9Zm3.728.793h1.069V-6.253h-1.069Zm.542-4.815a.6.6,0,0,0,.637-.593.591.591,0,0,0-.637-.593.593.593,0,0,0-.645.593A.6.6,0,0,0-32.87-6.92ZM-29.281-2c1.069,0,1.633-.585,1.633-1.311,0-.77-.6-1.044-1.143-1.252-.432-.163-.835-.274-.835-.578,0-.237.176-.4.542-.4a1.569,1.569,0,0,1,.886.356l.483-.659a2.281,2.281,0,0,0-1.4-.511c-.923,0-1.524.526-1.524,1.274,0,.689.6,1.007,1.121,1.207.432.17.857.311.857.622,0,.259-.183.437-.593.437a1.77,1.77,0,0,1-1.1-.452l-.491.681A2.568,2.568,0,0,0-29.281-2Zm3.186-.1h1.069V-4.957a1.175,1.175,0,0,1,.857-.467c.4,0,.579.23.579.867v2.452h1.077V-4.69c0-1.044-.381-1.667-1.267-1.667a1.858,1.858,0,0,0-1.289.607l.044-.778V-8.016h-1.069Zm8.482-1.519a1.056,1.056,0,0,1,.447-.77,7.721,7.721,0,0,0,1.223,1.281,1.458,1.458,0,0,1-.791.274A.8.8,0,0,1-17.613-3.624ZM-17.07-6.3c0-.407.227-.667.542-.667.286,0,.41.2.41.474,0,.4-.33.667-.754.926A1.724,1.724,0,0,1-17.07-6.3Zm3.479,3.407a3.27,3.27,0,0,1-.96-.393,6.052,6.052,0,0,0,.916-1.881h-.974a4.153,4.153,0,0,1-.667,1.393,6.9,6.9,0,0,1-1.172-1.141c.579-.407,1.165-.859,1.165-1.585a1.151,1.151,0,0,0-1.26-1.193A1.358,1.358,0,0,0-17.964-6.3a2.608,2.608,0,0,0,.344,1.185,1.82,1.82,0,0,0-1.018,1.556A1.587,1.587,0,0,0-16.865-2,2.6,2.6,0,0,0-15.2-2.579,4.351,4.351,0,0,0-13.855-2Zm5.6.889a2.022,2.022,0,0,0,1.34-.5l-.425-.719a1.266,1.266,0,0,1-.8.333c-.593,0-1.018-.5-1.018-1.281s.425-1.3,1.047-1.3a.931.931,0,0,1,.63.274l.513-.7A1.782,1.782,0,0,0-7.9-6.357,2.06,2.06,0,0,0-9.995-4.172,1.973,1.973,0,0,0-7.995-2Zm4.344,0a2.012,2.012,0,0,0,1.97-2.17,2.016,2.016,0,0,0-1.97-2.185,2.016,2.016,0,0,0-1.97,2.185A2.012,2.012,0,0,0-3.651-2Zm0-.889c-.557,0-.872-.5-.872-1.281s.315-1.3.872-1.3.872.511.872,1.3S-3.094-2.89-3.651-2.89ZM2.3-7.972a2.13,2.13,0,0,0-.776-.148C.495-8.12.1-7.453.1-6.587v.341L-.45-6.2v.807H.1v3.289H1.176V-5.394h.769v-.859H1.176v-.356c0-.459.176-.652.5-.652a1.324,1.324,0,0,1,.432.089Zm3.457,0a2.13,2.13,0,0,0-.776-.148c-1.033,0-1.428.667-1.428,1.533v.341L3.007-6.2v.807h.549v3.289H4.633V-5.394H5.4v-.859H4.633v-.356c0-.459.176-.652.5-.652a1.324,1.324,0,0,1,.432.089ZM8.523-2a2.568,2.568,0,0,0,1.436-.459l-.366-.667a1.678,1.678,0,0,1-.923.289A1.082,1.082,0,0,1,7.534-3.876h2.527a2.045,2.045,0,0,0,.051-.5c0-1.148-.586-1.985-1.714-1.985A2.022,2.022,0,0,0,6.487-4.172,2,2,0,0,0,8.523-2Zm-1-2.593a.93.93,0,0,1,.894-.919c.527,0,.776.356.776.919ZM13.511-2a2.568,2.568,0,0,0,1.436-.459l-.366-.667a1.678,1.678,0,0,1-.923.289,1.082,1.082,0,0,1-1.135-1.037h2.527a2.045,2.045,0,0,0,.051-.5c0-1.148-.586-1.985-1.714-1.985a2.022,2.022,0,0,0-1.912,2.185A2,2,0,0,0,13.511-2Zm-1-2.593a.93.93,0,0,1,.894-.919c.527,0,.776.356.776.919Zm6.387.756h2v-.778h-2Z" transform="translate(175.437 -446.295)" fill="#fff"/>
  </g>
</svg>